<?xml version="1.0" encoding="UTF-8" standalone="no"?>
<!-- Created with Inkscape (http://www.inkscape.org/) -->

<svg
   width="169.33333mm"
   height="152.24837mm"
   viewBox="0 0 169.33333 152.24837"
   version="1.1"
   id="svg5"
   xml:space="preserve"
   inkscape:version="1.2.1 (9c6d41e410, 2022-07-14)"
   sodipodi:docname="rysunek.svg"
   xmlns:inkscape="http://www.inkscape.org/namespaces/inkscape"
   xmlns:sodipodi="http://sodipodi.sourceforge.net/DTD/sodipodi-0.dtd"
   xmlns="http://www.w3.org/2000/svg"
   xmlns:svg="http://www.w3.org/2000/svg"><sodipodi:namedview
     id="namedview7"
     pagecolor="#ffffff"
     bordercolor="#000000"
     borderopacity="0.25"
     inkscape:showpageshadow="2"
     inkscape:pageopacity="0.0"
     inkscape:pagecheckerboard="true"
     inkscape:deskcolor="#d1d1d1"
     inkscape:document-units="mm"
     showgrid="false"
     inkscape:zoom="0.52221046"
     inkscape:cx="905.76508"
     inkscape:cy="287.24051"
     inkscape:window-width="1920"
     inkscape:window-height="1009"
     inkscape:window-x="1352"
     inkscape:window-y="-8"
     inkscape:window-maximized="1"
     inkscape:current-layer="layer1" /><defs
     id="defs2" /><g
     inkscape:label="Warstwa 1"
     inkscape:groupmode="layer"
     id="layer1"
     transform="translate(-20.304384,-69.330578)"><g
       id="layer1-7"
       transform="matrix(0.26458333,0,0,0.26458333,19.641705,67.305324)"><path
         d="M 297.29747,550.86823 C 283.52243,535.43191 249.1268,505.33855 220.86277,483.99412 137.11867,420.75228 125.72108,411.5999 91.719238,380.29088 29.03471,322.57071 2.413622,264.58086 2.5048478,185.95124 2.5493594,147.56739 5.1656152,132.77929 15.914734,110.15398 34.151433,71.768267 61.014996,43.244667 95.360052,25.799457 119.68545,13.443675 131.6827,7.9542046 172.30448,7.7296236 c 42.49329,-0.234834 51.43863,4.7197234 76.43471,18.4518354 30.42451,16.714318 61.7399,52.435708 68.21323,77.810591 l 3.9981,15.6724 9.85963,-21.584508 c 55.71617,-121.972928 233.59836,-120.148052 295.50229,3.031588 19.63767,39.07605 21.79364,122.51317 4.38012,169.51287 -22.71527,61.30937 -65.38001,108.05053 -164.00634,179.67658 -64.68082,46.97364 -137.88474,118.04586 -142.98067,128.02803 -5.91548,11.58753 -0.28216,1.8159 -26.40808,-27.46078 z"
         id="path2417"
         style="fill:#ff0000" /><g
         transform="translate(129.28571,-64.285714)"
         id="g2221" /></g><g
       id="g300"
       transform="matrix(0.17651155,0,0,0.17893771,59.185023,94.156792)"><g
         id="g245">
	<g
   id="g243">
		<path
   d="m 509.532,34.999 c -2.292,-2.233 -5.678,-2.924 -8.658,-1.764 L 5.213,225.734 c -2.946,1.144 -4.967,3.883 -5.192,7.034 -0.225,3.151 1.386,6.149 4.138,7.7 l 102.719,57.875 35.651,174.259 c 0.222,1.232 0.723,2.379 1.442,3.364 0.072,0.099 0.131,0.175 0.191,0.251 1.256,1.571 3.037,2.668 5.113,3 0.265,0.042 0.531,0.072 0.795,0.088 0.171,0.011 0.341,0.016 0.511,0.016 1.559,0 3.036,-0.445 4.295,-1.228 0.426,-0.264 0.831,-0.569 1.207,-0.915 0.117,-0.108 0.219,-0.205 0.318,-0.306 l 77.323,-77.52 c 3.186,-3.195 3.18,-8.369 -0.015,-11.555 -3.198,-3.188 -8.368,-3.18 -11.555,0.015 l -60.739,60.894 13.124,-112.394 185.495,101.814 c 1.868,1.02 3.944,1.239 5.846,0.78 0.209,-0.051 0.4,-0.105 0.589,-0.166 1.878,-0.609 3.526,-1.877 4.574,-3.697 0.053,-0.094 0.1,-0.179 0.146,-0.264 0.212,-0.404 0.382,-0.8 0.517,-1.202 L 511.521,43.608 c 1.079,-3.012 0.303,-6.378 -1.989,-8.609 z M 27.232,234.712 432.364,77.371 113.843,283.511 Z m 135.488,82.224 c -0.764,0.613 -1.429,1.374 -1.949,2.267 -0.068,0.117 -0.132,0.235 -0.194,0.354 -0.496,0.959 -0.784,1.972 -0.879,2.986 L 148.365,419.6 123.258,296.882 398.363,118.84 Z M 359.507,419.195 182.223,321.888 485.928,66.574 Z"
   id="path241" style="fill: #FFFFFF;" />
	</g>
</g><g
         id="g247">
</g><g
         id="g249">
</g><g
         id="g251">
</g><g
         id="g253">
</g><g
         id="g255">
</g><g
         id="g257">
</g><g
         id="g259">
</g><g
         id="g261">
</g><g
         id="g263">
</g><g
         id="g265">
</g><g
         id="g267">
</g><g
         id="g269">
</g><g
         id="g271">
</g><g
         id="g273">
</g><g
         id="g275">
</g></g></g></svg>
